<svg width="308" height="359" viewBox="0 0 308 359" fill="none" xmlns="http://www.w3.org/2000/svg">
<g clip-path="url(#clip0_304_121)">
<path d="M303.992 60.4569C286.403 60.4569 268.879 60.4569 251.29 60.4569C248.768 60.4569 246.246 60.4569 243.724 60.4569C244.435 60.1986 245.082 59.8756 245.793 59.6173C237.581 68.5309 229.368 77.4445 221.156 86.3582C221.414 85.6477 221.738 85.0018 221.996 84.2912C221.996 93.98 221.996 103.669 221.996 113.357C221.996 114.972 222.19 116.329 221.156 117.685C220.444 118.589 219.474 119.364 218.634 120.204C214.495 124.338 210.421 128.407 206.283 132.541C202.985 135.835 199.752 139.065 196.454 142.359C196.712 141.649 197.036 141.003 197.294 140.292C197.294 158.701 197.294 177.045 197.294 195.453C197.294 198.102 197.294 200.685 197.294 203.334C197.036 202.623 196.712 201.977 196.454 201.267C200.075 204.884 203.696 208.501 207.317 212.118C206.606 211.86 205.959 211.537 205.248 211.278C210.163 211.278 215.077 211.278 219.992 211.278C224.583 211.278 229.562 210.697 234.089 211.278C236.223 211.537 237.775 213.797 239.262 215.218C241.719 217.673 244.177 220.127 246.698 222.646C247.927 223.874 250.061 225.359 250.772 227.103C251.354 228.524 251.031 230.656 251.031 232.206C251.031 238.73 251.031 245.189 251.031 251.713C251.031 253.392 251.29 255.007 250.126 256.428C249.285 257.526 248.121 258.43 247.151 259.399C242.56 263.985 237.969 268.571 233.377 273.157C230.144 276.387 227.04 280.198 223.419 283.104C221.996 284.267 220.574 284.073 218.892 284.073C215.53 284.073 212.167 284.073 208.805 284.073C203.179 284.073 197.553 284.073 191.862 284.073C192.574 283.815 193.22 283.492 193.932 283.233C182.615 294.537 171.299 305.84 159.983 317.144C157.331 319.792 153.193 315.658 155.844 313.01C163.862 305.001 171.881 296.991 179.899 288.982C183.068 285.817 186.172 282.135 189.599 279.293C190.892 278.195 192.056 278.26 193.673 278.26C196.712 278.26 199.687 278.26 202.726 278.26C208.869 278.26 215.013 278.26 221.22 278.26C220.509 278.518 219.862 278.841 219.151 279.099C228.075 270.186 237.063 261.208 245.987 252.294C245.728 253.004 245.405 253.65 245.146 254.361C245.146 245.641 245.146 236.986 245.146 228.266C245.405 228.976 245.728 229.622 245.987 230.333C241.331 225.682 236.675 221.032 231.955 216.316C232.666 216.575 233.313 216.898 234.024 217.156C229.304 217.156 224.648 217.156 219.927 217.156C215.142 217.156 209.969 217.737 205.183 217.156C202.985 216.898 201.368 214.572 199.881 213.087C197.618 210.826 195.419 208.63 193.156 206.369C190.892 204.109 191.345 201.848 191.345 198.877C191.345 186.411 191.345 173.88 191.345 161.414C191.345 155.859 191.345 150.368 191.345 144.814C191.345 142.359 190.892 139.84 192.574 137.902C196.648 133.187 201.498 128.989 205.895 124.596C209.581 120.915 213.202 117.298 216.888 113.616C216.629 114.326 216.306 114.972 216.047 115.683C216.047 106.188 216.047 96.6928 216.047 87.1979C216.047 86.0998 215.853 84.6788 216.177 83.5807C216.5 82.4181 217.664 81.4492 218.504 80.6095C222.126 76.734 225.682 72.7939 229.304 68.9184C232.925 65.043 236.481 61.1029 240.103 57.2274C241.784 55.4188 242.948 54.7083 245.405 54.7083C255.558 54.7083 265.645 54.7083 275.798 54.7083C285.174 54.7083 294.615 54.7083 303.992 54.7083C307.742 54.6437 307.742 60.4569 303.992 60.4569Z" fill="#161101"/>
<path d="M303.992 84.6788C291.77 84.6788 279.549 84.6788 267.327 84.6788C268.038 84.4204 268.685 84.0975 269.396 83.8391C264.158 89.071 258.856 94.3675 253.618 99.5995C253.876 98.889 254.2 98.243 254.458 97.5325C254.458 105.606 254.458 113.616 254.458 121.69C254.2 120.979 253.876 120.333 253.618 119.623C256.14 122.142 258.597 124.596 261.119 127.115C260.408 126.857 259.761 126.534 259.05 126.276C263.576 126.276 268.167 126.276 272.694 126.276C274.311 126.276 276.121 126.082 277.738 126.276C279.484 126.47 280.26 127.568 281.424 128.73C285.304 132.606 289.184 136.481 293.064 140.357C294.745 142.036 296.814 143.457 297.008 145.976C297.396 151.402 297.008 156.957 297.008 162.318C297.008 172.976 297.008 183.633 297.008 194.226C297.008 216.446 297.008 238.665 297.008 260.949C297.008 265.277 297.525 269.992 297.008 274.32C296.685 276.774 293.775 278.777 292.094 280.456C288.214 284.331 284.398 288.142 280.519 292.018C276.574 295.958 272.629 299.898 268.685 303.838C266.939 305.582 264.611 309.005 261.96 309.393C258.403 309.845 254.523 309.393 250.902 309.393C245.276 309.393 239.65 309.393 234.024 309.393C232.99 309.393 231.955 309.393 230.985 309.393C227.234 309.393 227.234 303.58 230.985 303.58C241.331 303.58 251.678 303.58 261.96 303.58C261.248 303.838 260.602 304.161 259.89 304.419C270.56 293.762 281.295 283.04 291.964 272.382C291.706 273.092 291.382 273.738 291.124 274.449C291.124 259.916 291.124 245.447 291.124 230.914C291.124 207.79 291.124 184.667 291.124 161.478C291.124 156.182 291.124 150.821 291.124 145.524C291.382 146.235 291.706 146.881 291.964 147.591C286.532 142.165 281.101 136.74 275.669 131.314C276.38 131.572 277.027 131.895 277.738 132.154C273.599 132.154 269.396 132.154 265.258 132.154C263.318 132.154 261.313 132.347 259.373 132.154C257.562 131.96 256.722 131.056 255.558 129.893C253.165 127.503 248.768 124.661 248.639 121.044C248.509 116.458 248.639 111.807 248.639 107.157C248.639 104.767 248.639 102.377 248.639 99.9224C248.639 98.5014 248.445 97.0804 249.285 95.7886C251.355 92.6882 254.976 90.0399 257.627 87.3917C259.438 85.5831 261.313 83.7099 263.124 81.9014C264.029 80.9971 264.999 79.6407 266.163 79.1885C268.491 78.2196 272.306 78.9301 274.763 78.9301C284.463 78.9301 294.228 78.9301 303.927 78.9301C307.743 78.8656 307.743 84.6788 303.992 84.6788Z" fill="#161101"/>
<path d="M246.504 140.486C250.06 140.486 253.552 140.486 257.109 140.486C260.924 140.486 265.062 140.034 268.878 140.486C270.559 140.68 271.4 141.713 272.499 142.811C274.245 144.555 275.991 146.299 277.737 148.043C279.612 149.916 281.358 151.208 281.423 153.921C281.746 171.813 281.423 189.705 281.423 207.597C281.423 210.245 281.681 213.022 281.423 215.735C281.099 219.029 276.573 222 274.31 224.261C274.568 223.551 274.892 222.905 275.15 222.194C275.15 236.34 275.15 250.421 275.15 264.566C275.15 268.313 269.33 268.313 269.33 264.566C269.33 255.007 269.33 245.383 269.33 235.823C269.33 231.495 269.136 227.103 269.33 222.776C269.46 219.158 274.051 216.252 276.443 213.862C276.185 214.572 275.862 215.218 275.603 215.929C275.603 197.585 275.603 179.176 275.603 160.832C275.603 158.184 275.603 155.6 275.603 152.952C275.862 153.663 276.185 154.308 276.443 155.019C273.275 151.854 270.106 148.689 266.938 145.524C267.649 145.782 268.296 146.105 269.007 146.364C261.506 146.364 254.005 146.364 246.504 146.364C242.818 146.299 242.753 140.486 246.504 140.486Z" fill="#161101"/>
<path d="M224.455 136.352C220.639 140.163 216.824 143.974 212.944 147.849C213.203 147.139 213.526 146.493 213.785 145.782C213.785 161.22 213.785 176.593 213.785 192.03C213.526 191.319 213.203 190.674 212.944 189.963C216.242 193.257 219.54 196.551 222.773 199.781C222.062 199.523 221.415 199.2 220.704 198.941C224.067 198.941 227.429 198.941 230.792 198.941C233.314 198.941 237.064 198.231 239.198 199.91C241.332 201.654 243.207 203.915 245.147 205.853C248.381 209.082 251.614 212.312 254.847 215.541C256.787 217.479 259.05 219.352 260.796 221.484C262.025 222.969 261.766 224.584 261.766 226.393C261.766 234.337 261.766 242.282 261.766 250.227C261.766 256.945 261.766 263.662 261.766 270.38C261.766 274.126 255.946 274.126 255.946 270.38C255.946 254.813 255.946 239.246 255.946 223.744C256.205 224.455 256.528 225.101 256.787 225.811C249.545 218.577 242.237 211.278 234.995 204.044C235.706 204.302 236.353 204.625 237.064 204.884C233.702 204.884 230.339 204.884 226.977 204.884C224.261 204.884 220.639 205.594 218.441 203.786C215.531 201.396 212.944 198.295 210.293 195.647C208.741 194.097 207.965 192.999 207.965 190.803C207.965 176.14 207.577 161.478 207.965 146.816C208.03 143.974 210.034 142.617 211.91 140.744C214.69 137.967 217.471 135.189 220.251 132.412C222.967 129.57 227.106 133.704 224.455 136.352Z" fill="#161101"/>
<path d="M208.286 225.166C212.554 225.166 216.757 225.166 221.025 225.166C222.512 225.166 224.711 224.843 226.069 225.553C227.621 226.393 228.914 228.266 230.143 229.493C231.436 230.785 233.247 232.141 234.281 233.692C235.316 235.306 234.928 237.761 234.928 239.634C234.928 243.057 235.833 247.127 233.311 249.775C229.949 253.198 226.521 256.557 223.159 259.916C220.766 262.306 218.374 265.6 215.528 267.473C214.17 268.377 212.489 268.119 211.002 268.119C208.35 268.119 205.699 268.119 203.113 268.119C200.655 268.119 198.263 268.119 195.805 268.119C194.253 268.119 192.895 268.313 191.602 267.279C188.304 264.696 185.459 261.143 182.484 258.172C179.445 255.136 176.406 252.1 173.302 249C174.013 249.258 174.66 249.581 175.371 249.839C159.14 249.839 142.845 249.839 126.614 249.839C122.863 249.839 122.863 244.026 126.614 244.026C137.348 244.026 148.147 244.026 158.882 244.026C164.055 244.026 169.163 243.962 174.337 244.026C178.023 244.091 180.415 247.837 182.872 250.292C187.14 254.555 191.473 258.882 195.741 263.145C195.029 262.887 194.383 262.564 193.671 262.306C200.397 262.306 207.057 262.306 213.782 262.306C213.071 262.564 212.424 262.887 211.713 263.145C217.792 257.074 223.935 250.938 230.013 244.866C229.755 245.576 229.431 246.222 229.173 246.933C229.173 243.122 229.173 239.311 229.173 235.5C229.431 236.211 229.755 236.857 230.013 237.567C227.556 235.113 225.034 232.594 222.577 230.139C223.288 230.397 223.935 230.72 224.646 230.979C219.214 230.979 213.782 230.979 208.35 230.979C204.535 230.979 204.535 225.166 208.286 225.166Z" fill="#161101"/>
<path d="M306.061 288.272C294.228 300.092 282.459 311.848 270.625 323.668C269.267 325.024 268.362 326.122 266.357 326.251C263.706 326.445 260.925 326.251 258.274 326.251C247.733 326.251 237.128 326.251 226.588 326.251C218.893 326.251 211.262 326.251 203.567 326.251C204.278 325.993 204.925 325.67 205.636 325.412C199.752 331.29 193.867 337.167 187.983 343.045C185.59 345.435 183.262 348.213 180.611 350.409C179.124 351.636 177.636 351.378 175.826 351.378C156.556 351.378 137.285 351.378 118.08 351.378C111.549 351.378 105.017 351.378 98.4863 351.378C94.7357 351.378 94.7357 345.564 98.4863 345.564C121.83 345.564 145.174 345.564 168.454 345.564C171.752 345.564 175.05 345.564 178.412 345.564C177.701 345.823 177.054 346.146 176.343 346.404C181.193 341.56 186.108 336.651 190.957 331.806C193.738 329.029 196.519 326.251 199.364 323.409C200.722 322.053 201.756 320.632 203.826 320.374C209.322 319.792 215.142 320.374 220.574 320.374C230.144 320.374 239.715 320.374 249.35 320.374C255.235 320.374 261.054 320.374 266.939 320.374C266.228 320.632 265.581 320.955 264.87 321.213C277.156 308.941 289.572 296.539 301.923 284.202C304.574 281.554 308.713 285.623 306.061 288.272Z" fill="#161101"/>
<path d="M305.219 44.309C283.556 44.309 261.894 44.309 240.166 44.309C237.127 44.309 234.023 44.309 230.984 44.309C231.695 44.0507 232.342 43.7277 233.053 43.4693C223.288 53.2227 213.524 62.976 203.824 72.6647C204.083 71.9542 204.406 71.3083 204.665 70.5978C204.665 82.4827 204.665 94.4321 204.665 106.317C204.665 107.932 204.859 109.74 204.665 111.355C204.471 113.034 203.436 113.874 202.272 114.972C197.552 119.687 192.767 124.467 188.046 129.182C184.037 133.187 179.963 137.256 175.954 141.261C176.212 140.55 176.536 139.905 176.794 139.194C176.794 150.691 176.794 162.189 176.794 173.621C176.794 175.172 175.436 176.528 173.884 176.528C159.205 176.528 144.591 176.528 129.912 176.528C126.161 176.528 126.161 170.715 129.912 170.715C144.591 170.715 159.205 170.715 173.884 170.715C172.914 171.684 171.944 172.652 170.974 173.621C170.974 162.835 170.974 151.983 170.974 141.196C170.974 139.646 170.845 138.354 171.88 137.063C172.72 135.964 173.949 134.996 174.919 134.027C179.575 129.376 184.231 124.726 188.887 120.075C192.443 116.522 196.064 112.905 199.621 109.353C199.362 110.063 199.039 110.709 198.78 111.42C198.78 99.7932 198.78 88.2313 198.78 76.6048C198.78 73.2461 198.069 70.0811 200.591 67.562C204.924 63.2344 209.256 58.9067 213.589 54.5791C218.18 49.9931 222.771 45.4071 227.298 40.8857C228.397 39.7876 229.238 38.6896 230.919 38.4312C231.76 38.302 232.665 38.4312 233.506 38.4312C246.18 38.4312 258.854 38.4312 271.529 38.4312C282.716 38.4312 293.903 38.4312 305.09 38.4312C308.905 38.4958 308.97 44.309 305.219 44.309Z" fill="#161101"/>
<path d="M185.137 77.5093C185.137 81.6431 185.655 86.1 185.137 90.1692C184.749 93.0758 180.805 95.7887 178.865 97.7264C172.334 104.25 165.802 110.774 159.271 117.298C159.53 116.587 159.853 115.941 160.112 115.231C160.112 124.726 160.112 134.221 160.112 143.651C160.112 145.201 158.754 146.558 157.202 146.558C146.726 146.558 136.25 146.558 125.775 146.558C122.024 146.558 122.024 140.744 125.775 140.744C136.25 140.744 146.726 140.744 157.202 140.744C156.232 141.713 155.262 142.682 154.292 143.651C154.292 134.479 154.098 125.372 154.292 116.2C154.357 113.164 156.62 111.678 158.625 109.676C162.763 105.542 166.902 101.408 171.04 97.2743C174.08 94.2385 177.183 91.1381 180.223 88.1023C179.964 88.8128 179.641 89.4587 179.382 90.1692C179.382 85.9062 179.382 81.7077 179.382 77.4447C179.317 73.763 185.137 73.763 185.137 77.5093Z" fill="#161101"/>
<path d="M213.523 6.2646C213.523 9.42959 213.523 12.5946 213.523 15.7596C213.523 19.4413 213.911 23.3168 213.523 26.9985C213.264 29.0654 211.906 30.0989 210.484 31.4553C207.703 34.2328 204.858 37.0748 202.077 39.8522C196.322 45.6009 190.631 51.2849 184.876 57.0336C183.583 58.3254 182.484 58.9067 180.608 58.9713C177.116 59.0359 173.56 58.9713 170.003 58.9713C162.114 58.9713 154.225 58.9713 146.336 58.9713C147.047 58.713 147.694 58.39 148.405 58.1316C143.749 62.7822 139.029 67.4974 134.373 72.148C133.015 73.5044 131.98 74.9255 129.976 75.1192C128.488 75.2484 126.936 75.1192 125.449 75.1192C109.994 75.1192 94.539 75.1192 79.0194 75.1192C74.2342 75.1192 69.449 75.1192 64.6638 75.1192C65.3751 74.8609 66.0217 74.5379 66.733 74.2795C61.7538 79.2531 56.71 84.2912 51.7307 89.2648C49.0795 91.913 44.9409 87.7792 47.5922 85.1309C52.054 80.6741 56.5806 76.1527 61.0425 71.6959C62.3358 70.404 63.1765 69.4352 65.0517 69.306C66.733 69.1768 68.479 69.306 70.0956 69.306C85.4859 69.306 100.876 69.306 116.331 69.306C120.922 69.306 125.578 69.306 130.17 69.306C129.458 69.5644 128.812 69.8873 128.1 70.1457C130.881 67.3682 133.661 64.5908 136.377 61.878C138.253 60.0048 140.063 58.1962 141.939 56.3231C142.779 55.4834 143.749 54.1916 144.784 53.6102C147.112 52.3184 151.509 53.2227 153.966 53.2227C159.527 53.2227 165.024 53.2227 170.585 53.2227C174.271 53.2227 178.022 53.2227 181.708 53.2227C180.996 53.481 180.35 53.804 179.638 54.0624C189.273 44.4382 198.844 34.8787 208.479 25.2545C208.22 25.965 207.897 26.611 207.638 27.3215C207.638 20.3456 207.638 13.3697 207.638 6.32919C207.703 2.51829 213.523 2.51829 213.523 6.2646Z" fill="#161101"/>
<path d="M156.101 77.8321C152.027 81.9014 148.018 85.9061 143.944 89.9753C142.586 91.3318 141.357 93.0757 139.418 93.2695C138.318 93.3987 137.154 93.2695 136.055 93.2695C122.799 93.2695 109.607 93.2695 96.3506 93.2695C92.1474 93.2695 87.9441 93.2695 83.8055 93.2695C84.5169 93.0111 85.1635 92.6882 85.8748 92.4298C78.1797 100.116 70.4845 107.803 62.7247 115.554C61.8841 116.393 61.0434 117.491 60.0088 118.266C58.5861 119.365 57.0342 119.106 55.3529 119.106C49.145 119.106 42.9372 119.106 36.7293 119.106C31.5561 119.106 26.3829 119.106 21.2097 119.106C17.4591 119.106 17.4591 113.293 21.2097 113.293C33.4314 113.293 45.7178 113.293 57.9395 113.293C57.2282 113.551 56.5815 113.874 55.8702 114.133C60.2674 109.74 64.6 105.413 68.9972 101.02C71.9072 98.1139 74.8171 95.2073 77.727 92.3006C79.0203 91.0088 80.249 89.4586 81.6716 88.3606C83.1589 87.1979 84.9049 87.5209 86.6508 87.5209C89.8841 87.5209 93.1173 87.5209 96.2859 87.5209C104.951 87.5209 113.552 87.5209 122.217 87.5209C127.907 87.5209 133.662 87.5209 139.353 87.5209C138.642 87.7792 137.995 88.1022 137.284 88.3606C142.133 83.5162 147.048 78.6072 151.898 73.7629C154.614 71.1146 158.752 75.1839 156.101 77.8321Z" fill="#161101"/>
<path d="M195.417 2.77667C195.417 6.13543 195.417 9.49419 195.417 12.7884C195.417 15.6304 196.193 19.5059 195.288 22.3479C194.576 24.6086 191.343 26.8047 189.727 28.4195C186.558 31.5845 183.389 34.7495 180.156 37.9791C178.41 39.7231 176.535 42.4359 174.336 43.6631C172.526 44.6966 169.228 44.0507 167.288 44.0507C158.881 44.0507 150.41 44.0507 142.004 44.0507C139.029 44.0507 137.8 42.9526 135.731 40.8857C132.821 37.9791 129.976 35.1371 127.066 32.2304C127.777 32.4888 128.424 32.8118 129.135 33.0701C101.523 33.0701 73.9113 33.0701 46.2992 33.0701C42.3547 33.0701 38.4748 33.0701 34.5302 33.0701C35.2415 32.8118 35.8882 32.4888 36.5995 32.2304C32.9136 35.9122 29.163 39.6585 25.4771 43.3402C22.8258 45.9884 18.6873 41.8546 21.3385 39.2063C24.6364 35.9122 27.9344 32.618 31.297 29.2592C32.9782 27.5798 34.2069 27.1923 36.4702 27.1923C44.7473 27.1923 52.9598 27.1923 61.2369 27.1923C82.6411 27.1923 104.11 27.1923 125.514 27.1923C127.777 27.1923 129.782 26.8047 131.593 28.4195C135.343 31.7137 138.706 35.5246 142.262 39.0771C141.551 38.8188 140.904 38.4958 140.193 38.2374C151.121 38.2374 162.05 38.2374 172.914 38.2374C172.202 38.4958 171.556 38.8188 170.844 39.0771C177.375 32.5534 183.907 26.0296 190.373 19.5705C190.114 20.281 189.791 20.9269 189.533 21.6374C189.533 15.372 189.533 9.10664 189.533 2.84126C189.597 -0.90505 195.417 -0.969641 195.417 2.77667Z" fill="#161101"/>
<path d="M126.098 173.686C125.774 167.679 116.786 167.679 116.786 173.686C116.786 179.758 125.774 179.693 126.098 173.686C126.292 169.94 132.112 169.94 131.918 173.686C131.594 179.37 127.326 184.15 121.442 184.15C115.751 184.15 110.966 179.37 110.966 173.686C110.966 168.131 115.493 163.481 121.054 163.222C127.132 162.964 131.659 167.808 131.982 173.686C132.112 177.432 126.292 177.432 126.098 173.686Z" fill="#161101"/>
<path d="M122.346 252.359C119.168 252.359 116.591 249.785 116.591 246.61C116.591 243.435 119.168 240.861 122.346 240.861C125.525 240.861 128.102 243.435 128.102 246.61C128.102 249.785 125.525 252.359 122.346 252.359Z" fill="#161101"/>
<path d="M160.304 71.5668C160.11 67.9497 154.614 67.8851 154.614 71.5668C154.614 75.2485 160.11 75.1839 160.304 71.5668C160.498 67.8205 166.318 67.8205 166.124 71.5668C165.866 76.282 162.374 80.2221 157.459 80.2221C152.738 80.2221 148.859 76.282 148.794 71.5668C148.794 66.9808 152.609 63.1053 157.136 62.9115C162.18 62.7178 165.866 66.7224 166.124 71.5668C166.318 75.3131 160.498 75.3131 160.304 71.5668Z" fill="#161101"/>
<path d="M121.053 149.4C117.875 149.4 115.298 146.826 115.298 143.651C115.298 140.476 117.875 137.902 121.053 137.902C124.232 137.902 126.809 140.476 126.809 143.651C126.809 146.826 124.232 149.4 121.053 149.4Z" fill="#161101"/>
<path d="M241.784 149.141C238.605 149.141 236.029 146.568 236.029 143.393C236.029 140.218 238.605 137.644 241.784 137.644C244.962 137.644 247.539 140.218 247.539 143.393C247.539 146.568 244.962 149.141 241.784 149.141Z" fill="#161101"/>
<path d="M225.682 136.611C222.504 136.611 219.927 134.037 219.927 130.862C219.927 127.687 222.504 125.113 225.682 125.113C228.861 125.113 231.438 127.687 231.438 130.862C231.438 134.037 228.861 136.611 225.682 136.611Z" fill="#161101"/>
<path d="M47.4649 90.2983C44.943 87.7147 40.6751 90.9442 43.0031 93.8509C45.2663 96.6929 49.7929 93.0758 47.4649 90.2983C46.495 89.0711 46.301 87.3917 47.4649 86.1645C48.4996 85.131 50.5689 84.9372 51.6035 86.1645C54.5781 89.7816 54.7721 95.0135 51.1508 98.3723C47.7236 101.537 42.0977 101.408 38.9292 97.9201C35.7606 94.4322 35.8899 88.9419 39.3818 85.7123C42.8737 82.4827 48.3703 82.8057 51.6035 86.1645C54.1901 88.8127 50.1162 92.9466 47.4649 90.2983Z" fill="#161101"/>
<path d="M203.762 226.328C201.24 223.744 196.972 226.974 199.3 229.881C201.628 232.723 206.09 229.106 203.762 226.328C202.792 225.101 202.598 223.421 203.762 222.194C204.796 221.161 206.866 220.967 207.9 222.194C210.875 225.811 211.069 231.043 207.448 234.402C204.02 237.567 198.395 237.438 195.226 233.95C192.057 230.462 192.187 224.972 195.679 221.742C199.171 218.513 204.667 218.835 207.9 222.194C210.487 224.842 206.413 228.976 203.762 226.328Z" fill="#161101"/>
<path d="M272.174 275.999C268.996 275.999 266.419 273.425 266.419 270.25C266.419 267.075 268.996 264.502 272.174 264.502C275.353 264.502 277.93 267.075 277.93 270.25C277.93 273.425 275.353 275.999 272.174 275.999Z" fill="#161101"/>
<path d="M258.53 281.102C255.351 281.102 252.775 278.528 252.775 275.353C252.775 272.178 255.351 269.604 258.53 269.604C261.708 269.604 264.285 272.178 264.285 275.353C264.285 278.528 261.708 281.102 258.53 281.102Z" fill="#161101"/>
<path d="M227.167 312.17C223.988 312.17 221.411 309.597 221.411 306.422C221.411 303.247 223.988 300.673 227.167 300.673C230.345 300.673 232.922 303.247 232.922 306.422C232.922 309.597 230.345 312.17 227.167 312.17Z" fill="#161101"/>
<path d="M182.162 80.4158C178.126 80.4158 174.854 77.148 174.854 73.117C174.854 69.0859 178.126 65.8181 182.162 65.8181C186.197 65.8181 189.469 69.0859 189.469 73.117C189.469 77.148 186.197 80.4158 182.162 80.4158Z" fill="#161101"/>
<path d="M18.3008 116.2C17.9775 110.193 8.98906 110.193 8.98906 116.2C8.92439 122.207 17.9775 122.142 18.3008 116.2C18.4948 112.453 24.3147 112.453 24.1207 116.2C23.7974 121.884 19.5295 126.663 13.6449 126.663C7.9544 126.663 3.16919 121.884 3.16919 116.2C3.16919 110.645 7.69576 105.994 13.257 105.736C19.3355 105.477 23.8621 110.322 24.1854 116.2C24.3147 119.881 18.4948 119.881 18.3008 116.2Z" fill="#161101"/>
<path d="M21.4046 51.8664C21.0166 41.8547 5.82027 41.7901 5.82027 51.8664C5.82027 61.9427 21.0166 61.8781 21.4046 51.8664C21.5339 48.1201 27.3538 48.1201 27.2244 51.8664C26.9011 59.2944 21.2106 65.4306 13.5801 65.4952C6.20826 65.4952 -0.06427 59.2944 -0.06427 51.8664C-0.06427 44.5029 6.14359 38.2375 13.5801 38.2375C21.2106 38.2375 26.9011 44.4383 27.2244 51.8664C27.3538 55.6127 21.5339 55.6127 21.4046 51.8664Z" fill="#161101"/>
<path d="M157.008 321.213C156.685 315.206 147.696 315.206 147.696 321.213C147.696 327.285 156.685 327.22 157.008 321.213C157.202 317.467 163.022 317.467 162.828 321.213C162.504 326.897 158.237 331.677 152.352 331.677C146.661 331.677 141.876 326.897 141.876 321.213C141.876 315.658 146.403 311.008 151.964 310.749C158.043 310.491 162.569 315.335 162.892 321.213C163.022 324.959 157.202 324.959 157.008 321.213Z" fill="#161101"/>
<path d="M94.7358 348.471C94.4124 342.464 85.424 342.464 85.424 348.471C85.424 354.542 94.4124 354.478 94.7358 348.471C94.9297 344.724 100.75 344.724 100.556 348.471C100.232 354.155 95.9644 358.935 90.0799 358.935C84.3893 358.935 79.6041 354.155 79.6041 348.471C79.6041 342.916 84.1307 338.265 89.6919 338.007C95.7704 337.749 100.297 342.593 100.62 348.471C100.814 352.217 94.9944 352.217 94.7358 348.471Z" fill="#161101"/>
</g>
<defs>
<clipPath id="clip0_304_121">
<rect width="308" height="359" fill="white" transform="matrix(-1 0 0 1 308 -0.000732422)"/>
</clipPath>
</defs>
</svg>
