<svg width="30" height="30" viewBox="0 0 30 30" fill="none" xmlns="http://www.w3.org/2000/svg">
<path d="M29.6569 27.939C29.877 28.1676 30 28.4732 30 28.7912C30 29.1092 29.877 29.4148 29.6569 29.6434C29.4282 29.8718 29.1187 30 28.7962 30C28.4736 30 28.1642 29.8718 27.9354 29.6434L15.006 16.6578L2.0521 29.6434C1.82444 29.8644 1.5202 29.988 1.20357 29.988C0.886938 29.988 0.582692 29.8644 0.355032 29.6434C0.127636 29.4137 0 29.1029 0 28.7789C0 28.455 0.127636 28.1442 0.355032 27.9145L13.2845 14.9288L0.355032 1.91868C0.194215 1.68263 0.120613 1.39755 0.146962 1.11276C0.173311 0.827975 0.297953 0.561396 0.499321 0.359152C0.70069 0.156909 0.966116 0.0317253 1.24967 0.00526186C1.53323 -0.0212016 1.81708 0.0527202 2.0521 0.214236L15.006 13.1999L27.9599 0.214236C28.1949 0.0527202 28.4787 -0.0212016 28.7623 0.00526186C29.0459 0.0317253 29.3113 0.156909 29.5126 0.359152C29.714 0.561396 29.8387 0.827975 29.865 1.11276C29.8914 1.39755 29.8178 1.68263 29.6569 1.91868L16.7275 14.9288L29.6569 27.939Z" fill="#2D445B"/>
</svg>
