<?xml version="1.0" encoding="utf-8"?>
<!-- Generator: Adobe Illustrator 24.1.2, SVG Export Plug-In . SVG Version: 6.00 Build 0)  -->
<svg version="1.1" id="Layer_1" xmlns="http://www.w3.org/2000/svg" xmlns:xlink="http://www.w3.org/1999/xlink" x="0px" y="0px"
	 viewBox="0 0 2026.6 443.3" style="enable-background:new 0 0 2026.6 443.3;" xml:space="preserve">
<style type="text/css">
	.st0{fill-rule:evenodd;clip-rule:evenodd;fill:#A4C8ED;}
	.st1{fill-rule:evenodd;clip-rule:evenodd;fill:#2D445B;}
	.st2{fill:#A4C8ED;}
</style>
<g>
	<path class="st0" d="M2024.6,0.1c66.1-0.7,104.2,69.7,107.6,114.8c5,67.3-413.5,362.2-510.4,371.7c-23.5,2.3-51.8-9.5-80-29.4
		C1372.4,582.9,1131,723.5,1054,728.3c-63.9,4-229.1-99.1-350.2-203.4C481,578.9,159,617.2,77.6,587.3
		C-33.7,546.5-110.5,232-40.8,160.8c93.5-95.5,268.2-84.1,357.3,20.1C405.8,285.5,463,315.1,569.7,288.1c24.6-6.2,49-14.8,72.9-23.8
		c27.9-14.3,61.2-26,96.8-35.2c15.7-4.7,31.1-8.3,46-10.1c104.9-19.5,219.1-17.2,276.9,10.6c115.4,55.6,206.2,58.1,287.1-5
		c64.1-50,122.8-82,186.1-92.1c37.7-8.9,78.2-6.8,114.5,9.2c92.4,40.6,139.6,41.9,201.6-9.9c19.3-16.1,36.8-34.9,53.9-53.1
		C1943.5,38.4,1979,0.6,2024.6,0.1z"/>
	<path class="st1" d="M1395.6,206.6c-50.3-9.4-96.8,1-140.8,31.8c-14.3,10-28.3,22.1-42.2,36.3c-0.7,0.7-0.6,1.7,0,2.4
		c0.7,0.6,1.7,0.6,2.4,0c55.7-57.3,114.5-79.3,180-67.1c57.2,10.6,111.7,45.8,159.8,76.9c60.6,39.1,113,72.9,156,51.5
		c61.1-30.4,86.4-93.6,110.8-154.7l0,0c20.3-51,39.6-99.2,78.1-126c14.1-9.8,29.3-12.5,45.3-8c68.3,19.3,131.1,162.5,131.7,164
		c0.4,0.8,1.4,1.2,2.2,0.9c0.9-0.4,1.3-1.4,0.9-2.2c0,0,0-0.1-0.1-0.2c-1.3-3-16.9-38.1-40.3-75.1c-32.7-51.8-64.2-82.3-93.5-90.6
		c-17-4.8-33.2-2-48.1,8.5c-39.3,27.4-58.7,76-79.3,127.5l0,0l0,0c-24.2,60.5-49.1,123.1-109.1,153c-41.3,20.5-92.9-12.8-152.7-51.3
		l0,0C1508.3,252.7,1453.4,217.3,1395.6,206.6z M208.1,98.7c-46.1-33.9-97.8-45.9-157-36.4c-19.2,3.1-39.2,8.5-60,16.1
		c-1,0.3-1.5,1.4-1.1,2.4c0.3,1,1.4,1.5,2.4,1.1C76.2,51.2,146.1,57.7,206,101.8c52.3,38.5,90.1,100.4,123.5,155
		c42,68.8,78.3,128.2,131.9,127.6c76.2-0.9,132.3-52.3,186.5-101.9l0,0c45.2-41.4,97.9-70.5,149.7-78.9c18.9-3,35.5,1.7,49.4,14
		c2.5,2.2,4.4-1.7,2.5-2.8c-14.8-13.1-32.4-18.1-52.5-14.9c-52.8,8.5-106,38-151.6,79.8l0,0c-53.7,49.1-109.2,100-184,100.9
		c-51.5,0.6-87.2-58-128.6-125.8l0,0C299,199.8,261,137.6,208.1,98.7z"/>
	<rect x="13.6" y="463.7" class="st2" width="2383.7" height="304.3"/>
	<rect x="1775.3" y="550.5" class="st2" width="31.7" height="31.7"/>
	<rect x="1461.8" y="422.9" class="st2" width="400.3" height="181.8"/>
	<rect x="-168.1" y="302.4" class="st2" width="308.4" height="451.4"/>
	<rect x="1753.9" y="384.3" class="st2" width="343.1" height="166.3"/>
	<rect x="1807" y="302.4" class="st2" width="371.7" height="225.7"/>
	<rect x="1956.1" y="210.4" class="st2" width="200.2" height="232.9"/>
	<rect x="2115.4" y="194.5" class="st2" width="112.3" height="16"/>
	<rect x="2056.2" y="232.9" class="st2" width="138.9" height="42.9"/>
	<rect x="1925.5" y="263.6" class="st2" width="112.3" height="138.9"/>
	<rect x="2031" y="-3.7" class="st2" width="147.7" height="248.9"/>
</g>
<path class="st2" d="M2349.3,202.5"/>
</svg>
