<svg width="600" height="126" viewBox="0 0 600 126" fill="none" xmlns="http://www.w3.org/2000/svg">
<g clip-path="url(#clip0_304_112)">
<path d="M529.202 116.954C529.472 121.861 533.16 126.014 538.296 126.014C540.669 125.999 542.942 125.059 544.629 123.396C546.316 121.733 547.283 119.479 547.323 117.115C547.363 114.751 546.473 112.465 544.844 110.746C543.214 109.027 540.974 108.011 538.603 107.916C533.356 107.707 529.472 111.942 529.202 116.954C528.97 121.278 535.717 121.263 535.949 116.954C536.114 113.966 540.642 113.929 540.642 116.954C540.642 119.979 536.144 119.941 535.949 116.954C535.717 112.637 528.97 112.607 529.202 116.954Z" fill="#161101"/>
<path d="M548.051 14.0545C548.403 21.1351 553.77 27.1177 561.155 27.1177C564.634 27.1177 567.971 25.7406 570.431 23.2894C572.891 20.8382 574.273 17.5136 574.273 14.0471C574.273 10.5805 572.891 7.25598 570.431 4.80476C567.971 2.35354 564.634 0.976433 561.155 0.976433C553.77 0.976433 548.41 6.95161 548.051 14.0321C547.826 18.3567 554.573 18.3417 554.797 14.0321C555.202 5.93583 567.542 5.81633 567.542 14.0321C567.542 22.248 555.225 22.1285 554.797 14.0321C554.573 9.75245 547.826 9.72255 548.051 14.0545Z" fill="#161101"/>
<path d="M590.262 56.2315C584.884 56.2315 580.524 60.5753 580.524 65.9336C580.524 71.2919 584.884 75.6357 590.262 75.6357C595.64 75.6357 600 71.2919 600 65.9336C600 60.5753 595.64 56.2315 590.262 56.2315Z" fill="#161101"/>
<path d="M574.81 76.9952C570.641 76.9952 567.261 80.3625 567.261 84.5164C567.261 88.6702 570.641 92.0376 574.81 92.0376C578.98 92.0376 582.359 88.6702 582.359 84.5164C582.359 80.3625 578.98 76.9952 574.81 76.9952Z" fill="#161101"/>
<path d="M531.25 114.818H485.341L487.725 115.804L478.384 106.497C476.69 104.817 475.131 102.539 472.62 102.255C471.121 102.173 469.62 102.173 468.122 102.255H78.6542C58.8484 102.255 38.9227 101.635 19.1318 102.255H18.3071C13.9667 102.255 13.9592 108.977 18.3071 108.977H454.088C459.875 108.977 466.187 109.724 471.945 108.977C472.194 108.963 472.445 108.963 472.694 108.977L470.348 107.991L480.378 117.985C482.717 120.315 484.127 121.555 487.5 121.555H531.257C535.598 121.555 535.605 114.833 531.257 114.833L531.25 114.818Z" fill="#161101"/>
<path d="M578.214 81.1552H43.7117C36.47 81.1552 29.1909 80.9536 21.9717 81.1552H21.0421C16.6942 81.1552 16.6866 87.8773 21.0421 87.8773H555.545C562.787 87.8773 570.058 88.0864 577.285 87.8773H578.214C582.555 87.8773 582.562 81.1552 578.214 81.1552Z" fill="#161101"/>
<path d="M584.543 62.7369H544.429L546.813 63.7228L532.502 49.4646C529.046 46.0214 523.409 47.2836 518.828 47.2836H494.742C492.793 47.2836 491.226 47.082 489.622 48.4114C487.598 50.0845 485.821 52.1982 483.962 54.0505L467.987 69.9668L470.371 68.9809H60.7751C41.9064 68.9809 22.8878 68.3236 4.02643 68.9809H3.27679C-1.06372 68.9809 -1.07117 75.7029 3.27679 75.7029H465.543C467.116 75.7888 468.693 75.7888 470.266 75.7029C472.612 75.4415 474.014 73.4622 475.588 71.9012L487.276 60.2572L494.54 53.0198L492.156 54.0057H528.889L526.497 53.0198L539.182 65.6497C540.726 67.1958 542.128 69.1676 544.429 69.4589C545.942 69.5523 547.459 69.5523 548.972 69.4589H584.528C588.876 69.4589 588.876 62.7369 584.528 62.7369H584.543Z" fill="#161101"/>
<path d="M550.379 10.6412H504.402C502.611 10.6412 499.904 10.1931 498.24 11.0969C496.741 11.9259 495.444 13.7259 494.259 14.906L475.076 34.0489L459.94 49.1361L462.324 48.1502H62.9764C44.5724 48.1502 26.056 47.5453 7.65948 48.1502H6.87231C2.5318 48.1502 2.52435 54.8723 6.87231 54.8723H442.751C449.07 54.8723 455.705 55.4623 462.002 54.8723C463.261 54.7639 464.437 54.2008 465.308 53.2889C468.029 50.7494 470.6 48.0233 473.232 45.3942L497.498 21.2173L502.326 16.4073L499.942 17.3932H550.379C554.719 17.3932 554.727 10.6712 550.379 10.6712V10.6412Z" fill="#161101"/>
</g>
<defs>
<clipPath id="clip0_304_112">
<rect width="600" height="125" fill="white" transform="translate(600 125.999) rotate(-180)"/>
</clipPath>
</defs>
</svg>
