<svg width="170" height="18" viewBox="0 0 170 18" fill="none" xmlns="http://www.w3.org/2000/svg">
<path d="M2 3.00269C52.8945 7.6515 104.258 2.00269 155.244 2.00269C159.302 2.00269 171.441 3.00269 167.383 3.00269C145.331 3.00269 122.333 6.00269 99.9287 6.00269C87.3491 6.00269 74.8912 7.00269 62.3347 7.00269C54.0547 7.00269 46.0418 6.00269 37.7501 6.00269C29.0045 6.00269 20.4408 7.00269 11.7314 7.00269C9.17051 7.00269 6.60961 7.00269 4.04872 7.00269C-2.69498 7.00269 17.5361 7.00269 24.2798 7.00269C37.2704 7.00269 50.212 6.00269 63.2054 6.00269C72.851 6.00269 82.4605 7.00269 92.1436 7.00269C104.706 7.00269 117.563 9.46379 130.147 7.94713C138.974 6.88335 147.929 9.00269 156.883 9.00269C160.98 9.00269 173.273 9.00269 169.175 9.00269C155.234 9.00269 140.773 10.4691 126.869 11.7805C104.382 13.9015 81.5246 14.0027 58.9543 14.0027C42.4798 14.0027 25.7174 16.0027 9.37538 16.0027" stroke="#F2574D" stroke-width="3" stroke-linecap="round"/>
</svg>
