<svg width="40" height="40" viewBox="0 0 40 40" fill="none" xmlns="http://www.w3.org/2000/svg">
<g clip-path="url(#clip0_304_366)">
<path d="M5.14467 31.3678C5.23366 31.5598 5.35006 31.7748 5.55717 31.8183C5.69373 31.8468 5.83233 31.7904 5.95936 31.7327C8.62522 30.5208 10.6594 28.2655 13.115 26.6702C14.4812 25.7827 15.8693 24.9366 17.2271 24.0338C17.9844 23.5305 18.7981 23.0086 19.7074 22.9966C20.7393 22.9827 21.653 23.6262 22.4581 24.2716C25.4702 26.686 28.1315 29.5308 31.2705 31.7779C31.4683 31.9194 31.6755 32.0619 31.9139 32.1094C32.5773 32.2419 33.1885 31.6152 33.5415 31.1288C34.0046 30.4908 34.4711 29.9266 35.0136 29.3352C36.249 27.9887 37.4132 26.5769 38.4997 25.1076C38.7679 24.7448 39.0401 24.357 39.0923 23.9089C39.1746 23.2019 38.6948 22.5613 38.2074 22.0426C37.5876 21.3827 36.9113 20.7788 36.236 20.1759C34.4685 18.5978 32.701 17.0197 30.9335 15.4416C29.7777 14.4097 28.6209 13.3768 27.399 12.4242C26.2398 11.5205 25.0231 10.6901 23.7591 9.93976C22.6704 9.29359 21.5351 8.41906 20.2318 8.3339C18.6613 8.23078 17.2299 9.15789 15.9309 10.0464C14.5707 10.9769 13.2105 11.9073 11.8502 12.8378C11.2644 13.2385 10.6299 13.6058 10.1279 14.1124C9.75694 14.4866 9.46631 14.8327 9.00983 15.1169C7.70717 15.9283 6.39295 16.6877 5.13928 17.5791C4.51319 18.0244 3.89616 18.4823 3.2835 18.9457C2.93467 19.2094 1.86459 20.3486 1.45467 20.3486C1.20967 20.5379 0.953811 20.741 0.839514 21.0288C0.582327 21.6761 1.02295 22.4706 1.28905 23.0452C1.71741 23.9698 2.14584 24.8946 2.5742 25.8194C3.43116 27.669 4.28787 29.5184 5.14467 31.3678Z" fill="white"/>
<path d="M18.9061 7.35692C18.1529 7.70521 17.4529 8.20552 16.7593 8.65778C13.926 10.5051 11.3136 12.6601 8.63692 14.7213C7.31035 15.7428 5.96489 16.7418 4.56817 17.6659C3.8709 18.1273 3.16106 18.5698 2.43606 18.9864C1.8109 19.3454 1.13418 19.6656 0.629495 20.1951C0.125433 20.7238 -0.131911 21.4188 0.0678551 22.1421C0.305668 23.003 0.837699 23.8308 1.22043 24.6345C2.04332 26.3626 2.84762 28.1005 3.65332 29.8368C4.05606 30.7047 4.42614 31.5903 4.86496 32.4407C5.00161 32.7056 5.3877 32.7976 5.63559 32.6428C7.06707 31.7487 8.50403 30.8583 9.90809 29.9213C10.7257 29.3757 11.5184 28.7979 12.2968 28.2005C12.9667 27.7459 13.631 27.2829 14.2909 26.814C15.0356 26.2847 15.7752 25.7483 16.5125 25.209C17.2016 24.705 17.8752 24.1245 18.6214 23.7072C19.4195 23.2607 19.9786 23.7059 20.6256 24.1974C21.3925 24.7798 22.1588 25.363 22.9254 25.9458C24.4586 27.1115 25.9923 28.2765 27.525 29.4429C28.2915 30.0261 29.0563 30.6118 29.8219 31.1962C30.1931 31.4797 30.5643 31.763 30.9355 32.0464C31.2866 32.3145 31.6382 32.657 32.05 32.8275C32.93 33.1915 33.4241 32.4606 33.8892 31.8514C34.4816 31.0752 35.1152 30.327 35.7271 29.5661C36.916 28.0879 38.1109 26.6152 39.3111 25.1461C39.8472 24.49 40.2679 23.854 39.7937 23.0201C39.3641 22.2646 38.6902 21.5872 38.087 20.9696C36.8279 19.6805 35.4696 18.4796 34.1057 17.3033C31.3568 14.9327 28.4868 12.6976 25.5989 10.4997C24.8746 9.94825 24.148 9.39974 23.4207 8.85208C22.7443 8.34271 22.0739 7.73443 21.3071 7.36419C20.5062 6.97771 19.71 6.98528 18.9061 7.35692ZM21.4853 8.96068C22.1733 9.45005 22.8497 9.95677 23.5302 10.4565C27.8223 13.6076 32.0356 16.8454 35.9211 20.4943C36.8752 21.3904 37.8161 22.3108 38.5911 23.3656C38.6769 23.4823 38.7645 23.614 38.7533 23.7583C38.7439 23.88 38.6661 23.9839 38.5912 24.0801C36.7423 26.4605 34.963 28.9215 33.0251 31.2298C32.9114 31.3653 32.7765 31.5545 32.6339 31.6638C32.4936 31.7712 32.4792 31.7502 32.3372 31.6426C28.7024 28.8858 25.1004 26.0703 21.5763 23.1889C20.7607 22.522 19.7018 21.9864 18.6814 22.249C18.0721 22.4058 17.5698 22.8245 17.0865 23.2274C15.2536 24.7553 13.3719 26.2243 11.4451 27.6318C11.0247 27.939 5.687 31.5197 5.62379 31.3765C4.9845 29.9231 4.26309 28.5 3.59379 27.0615C2.82973 25.4195 1.98325 23.7889 1.31582 22.1049C1.05465 21.4458 1.41535 21.0656 1.95254 20.7074C2.5609 20.3018 3.22504 19.9768 3.84996 19.5968C5.2145 18.7669 6.52535 17.8521 7.80731 16.9004C10.3797 14.9908 12.8366 12.9294 15.4358 11.0556C16.0739 10.5956 16.7202 10.147 17.378 9.71599C18.0431 9.28005 18.7382 8.78778 19.47 8.47099C20.2336 8.14036 20.8623 8.51779 21.4853 8.96068Z" fill="#161101"/>
</g>
<defs>
<clipPath id="clip0_304_366">
<rect width="40" height="40" fill="white" transform="translate(0 40) rotate(-90)"/>
</clipPath>
</defs>
</svg>
