<svg width="209" height="70" viewBox="0 0 209 70" fill="none" xmlns="http://www.w3.org/2000/svg">
<path d="M68.4622 34.0769C67.3694 33.6557 66.3905 33.1207 65.5482 32.4606C65.184 32.176 65.1043 31.6524 65.3433 31.2654L65.4344 31.1288C65.7076 30.6849 66.2995 30.5597 66.7206 30.8556C67.4946 31.4134 68.3256 31.8573 69.2134 32.1988C70.3972 32.6654 71.6265 32.8931 72.8899 32.8931C74.438 32.8931 75.6559 32.563 76.5551 31.9142C77.4543 31.2654 77.8982 30.4459 77.8982 29.4442C77.8982 28.7271 77.7047 28.1466 77.3177 27.6913C76.9307 27.236 76.3502 26.8718 75.5762 26.5758C74.8022 26.2799 73.7664 25.9953 72.4688 25.7107C70.0898 25.1871 68.3369 24.4814 67.2101 23.6164C66.0832 22.7513 65.5141 21.522 65.5141 19.9398C65.5141 18.8243 65.8214 17.8568 66.4474 17.0373C67.0735 16.2178 67.9158 15.5917 68.9857 15.1592C70.0557 14.7266 71.2736 14.5104 72.6281 14.5104C74.768 14.5104 76.7258 15.0681 78.5243 16.1836C78.9796 16.4682 79.1048 17.0714 78.7861 17.5154L78.6722 17.6747C78.3877 18.0617 77.8641 18.1528 77.4657 17.9137C76.8624 17.5609 76.2022 17.2536 75.4965 17.0145C74.5063 16.673 73.5046 16.5023 72.4915 16.5023C71.046 16.5023 69.885 16.821 69.0199 17.4471C68.1548 18.0731 67.7223 18.9268 67.7223 19.974C67.7223 20.9756 68.1321 21.7383 68.9516 22.2732C69.7711 22.8082 71.1598 23.309 73.1176 23.753C74.7794 24.1058 76.0998 24.5156 77.0901 24.9595C78.0803 25.4034 78.8202 25.9725 79.321 26.6555C79.8219 27.3384 80.0723 28.2377 80.0723 29.3304C80.0723 30.4459 79.765 31.4134 79.1389 32.2557C78.5129 33.098 77.6592 33.7354 76.5551 34.1907C75.451 34.646 74.1875 34.8737 72.7533 34.8737C71.2736 34.8623 69.8394 34.6005 68.4622 34.0769Z" fill="#2D445B"/>
<path d="M106.069 15.5348C107.138 16.1722 107.958 17.0942 108.561 18.278C109.153 19.4617 109.449 20.8618 109.449 22.4553V33.6671C109.449 34.1679 109.039 34.5777 108.539 34.5777H108.186C107.685 34.5777 107.275 34.1679 107.275 33.6671V22.4553C107.275 20.6455 106.82 19.2455 105.909 18.2438C104.999 17.2422 103.792 16.7413 102.301 16.7413C100.81 16.7413 99.6147 17.2422 98.7268 18.2438C97.8276 19.2455 97.3837 20.6455 97.3837 22.4553V33.6671C97.3837 34.1679 96.9739 34.5777 96.4731 34.5777H96.0975C95.5966 34.5777 95.1869 34.1679 95.1869 33.6671V22.5464C95.1869 20.7366 94.7316 19.3252 93.8324 18.2894C92.9331 17.2649 91.7266 16.7527 90.2469 16.7527C88.7558 16.7527 87.5606 17.2536 86.6728 18.2552C85.7736 19.2569 85.3296 20.6569 85.3296 22.4667V33.6785C85.3296 34.1793 84.9199 34.5891 84.419 34.5891H84.0434C83.5426 34.5891 83.1328 34.1793 83.1328 33.6785V22.4667C83.1328 20.8618 83.4288 19.4731 84.0206 18.2894C84.6125 17.1056 85.4435 16.1836 86.4906 15.5462C87.5492 14.9088 88.7558 14.59 90.133 14.59C91.5103 14.59 92.7282 14.9201 93.7754 15.5803C94.4356 15.9901 94.9934 16.5137 95.46 17.1397C95.8243 17.6406 96.5528 17.6519 96.9284 17.1511C97.4178 16.5137 97.9983 15.9901 98.6813 15.5803C99.7626 14.9201 101.015 14.59 102.426 14.59C103.781 14.5787 104.999 14.8974 106.069 15.5348Z" fill="#2D445B"/>
<path d="M125.826 15.6031C127.09 16.3088 128.069 17.3219 128.763 18.6308C129.457 19.9398 129.81 21.4765 129.81 23.2521V33.6671C129.81 34.1679 129.4 34.5777 128.9 34.5777H128.547C128.046 34.5777 127.636 34.1679 127.636 33.6671V28.8523C127.636 28.3515 127.226 27.9417 126.726 27.9417H116.311C115.81 27.9417 115.4 28.3515 115.4 28.8523V33.6671C115.4 34.1679 114.99 34.5777 114.489 34.5777H114.114C113.613 34.5777 113.203 34.1679 113.203 33.6671V23.2521C113.203 21.4765 113.556 19.9398 114.25 18.6308C114.945 17.3219 115.924 16.3088 117.187 15.6031C118.45 14.8974 119.896 14.5445 121.512 14.5445C123.129 14.5445 124.574 14.8974 125.826 15.6031ZM115.4 25.9612H127.636V23.2521C127.636 21.8635 127.374 20.6569 126.862 19.6439C126.339 18.6308 125.621 17.8682 124.699 17.3219C123.777 16.7869 122.708 16.5137 121.501 16.5137C120.294 16.5137 119.236 16.7869 118.325 17.3219C117.415 17.8568 116.698 18.6308 116.174 19.6439C115.65 20.6569 115.4 21.8521 115.4 23.2521V25.9612Z" fill="#2D445B"/>
<path d="M147.65 34.5891H147.525C147.275 34.5891 147.024 34.4866 146.854 34.2931L141.481 28.4653C141.299 28.2718 141.049 28.158 140.787 28.1694C140.627 28.1694 140.445 28.1808 140.229 28.1808H136.735C136.234 28.1808 135.824 28.5905 135.824 29.0913V33.6785C135.824 34.1793 135.414 34.5891 134.913 34.5891H134.481C133.98 34.5891 133.57 34.1793 133.57 33.6785V22.6375C133.57 21.1122 133.866 19.7349 134.458 18.4942C135.05 17.2649 135.927 16.286 137.088 15.5803C138.249 14.8746 139.637 14.5218 141.253 14.5218C142.802 14.5218 144.145 14.8405 145.283 15.4665C146.421 16.0925 147.298 16.9348 147.901 17.982C148.504 19.0292 148.8 20.1447 148.8 21.3285C148.8 22.9107 148.345 24.2652 147.434 25.4034C146.524 26.5303 145.215 27.3271 143.519 27.7824L148.345 33.0638C148.857 33.6443 148.436 34.5891 147.65 34.5891ZM135.813 26.1888H140.821C142.608 26.1888 144.019 25.7563 145.032 24.8798C146.046 24.0034 146.558 22.8537 146.558 21.4195C146.558 20.5317 146.341 19.7236 145.898 18.9723C145.454 18.2325 144.828 17.6292 144.019 17.1739C143.211 16.7186 142.267 16.4909 141.197 16.4909C139.387 16.4909 138.044 17.0714 137.156 18.2438C136.268 19.4162 135.824 20.8732 135.824 22.6261V26.1888H135.813Z" fill="#2D445B"/>
<path d="M150.883 14.8063H164.941C165.441 14.8063 165.851 15.2161 165.851 15.7169V15.8421C165.851 16.343 165.441 16.7527 164.941 16.7527H159.01V33.6671C159.01 34.168 158.601 34.5777 158.1 34.5777H157.69C157.189 34.5777 156.779 34.168 156.779 33.6671V16.7527H150.883C150.382 16.7527 149.973 16.343 149.973 15.8421V15.7169C149.973 15.2047 150.382 14.8063 150.883 14.8063Z" fill="#2D445B"/>
<path d="M170.392 34.5891H170.04C169.539 34.5891 169.129 34.1793 169.129 33.6785V15.7169C169.129 15.2161 169.539 14.8063 170.04 14.8063H170.392C170.893 14.8063 171.303 15.2161 171.303 15.7169V33.6785C171.314 34.1793 170.905 34.5891 170.392 34.5891Z" fill="#2D445B"/>
<path d="M190.357 32.2215C190.665 32.6654 190.517 33.2801 190.038 33.5419C189.435 33.872 188.707 34.1452 187.83 34.3614C186.499 34.7029 185.11 34.8736 183.664 34.8736C181.103 34.8736 179.123 34.407 177.711 33.4622C176.311 32.5175 175.605 31.1971 175.605 29.4784C175.605 28.1807 176.015 27.0425 176.835 26.075C177.165 25.6766 177.552 25.3465 177.996 25.0733C178.576 24.7091 178.542 23.8554 177.939 23.5139C177.563 23.2977 177.233 23.0472 176.96 22.7513C176.209 21.9545 175.833 20.9415 175.833 19.7008C175.833 18.0845 176.55 16.8096 177.996 15.899C179.441 14.9884 181.388 14.5331 183.835 14.5331C185.178 14.5331 186.464 14.7039 187.716 15.0454C188.525 15.2616 189.23 15.5348 189.811 15.8649C190.289 16.1381 190.437 16.7641 190.107 17.208L190.084 17.2308C189.811 17.6064 189.287 17.7089 188.889 17.4698C188.388 17.1853 187.819 16.9576 187.159 16.7755C186.18 16.5137 185.167 16.3771 184.108 16.3771C182.241 16.3771 180.773 16.6958 179.703 17.3219C178.633 17.9479 178.087 18.8585 178.087 20.0195C178.087 22.148 179.863 23.218 183.402 23.218H186.897C187.398 23.218 187.807 23.6278 187.807 24.1286V24.2766C187.807 24.7774 187.398 25.1872 186.897 25.1872H183.311C181.638 25.1872 180.306 25.5514 179.316 26.2799C178.326 27.0083 177.836 28.0214 177.836 29.319C177.836 30.4914 178.383 31.402 179.476 32.0508C180.568 32.6996 182.082 33.0297 184.029 33.0297C185.201 33.0297 186.305 32.8931 187.352 32.6199C188.047 32.4378 188.65 32.2101 189.151 31.937C189.572 31.7093 190.084 31.8231 190.357 32.2215Z" fill="#2D445B"/>
<path d="M196.411 34.0769C195.319 33.6557 194.34 33.1207 193.497 32.4606C193.133 32.176 193.054 31.6524 193.293 31.2654L193.384 31.1288C193.657 30.6849 194.249 30.5597 194.67 30.8556C195.444 31.4134 196.275 31.8573 197.163 32.1988C198.346 32.6654 199.576 32.8931 200.839 32.8931C202.387 32.8931 203.605 32.563 204.504 31.9142C205.404 31.2654 205.847 30.4459 205.847 29.4442C205.847 28.7271 205.654 28.1466 205.267 27.6913C204.88 27.236 204.299 26.8718 203.525 26.5758C202.751 26.2799 201.716 25.9953 200.418 25.7107C198.039 25.1871 196.286 24.4814 195.159 23.6164C194.032 22.7513 193.463 21.522 193.463 19.9398C193.463 18.8243 193.771 17.8568 194.397 17.0373C195.023 16.2178 195.865 15.5917 196.935 15.1592C198.005 14.7266 199.223 14.5104 200.577 14.5104C202.717 14.5104 204.675 15.0681 206.473 16.1836C206.929 16.4682 207.054 17.0714 206.735 17.5154L206.621 17.6747C206.337 18.0617 205.813 18.1528 205.415 17.9137C204.812 17.5609 204.151 17.2536 203.446 17.0145C202.455 16.673 201.454 16.5023 200.441 16.5023C198.995 16.5023 197.834 16.821 196.969 17.4471C196.104 18.0731 195.672 18.9268 195.672 19.974C195.672 20.9756 196.081 21.7383 196.901 22.2732C197.72 22.8082 199.109 23.309 201.067 23.753C202.729 24.1058 204.049 24.5156 205.039 24.9595C206.03 25.4034 206.769 25.9725 207.27 26.6555C207.771 27.3384 208.022 28.2377 208.022 29.3304C208.022 30.4459 207.714 31.4134 207.088 32.2557C206.462 33.098 205.608 33.7354 204.504 34.1907C203.4 34.646 202.137 34.8737 200.703 34.8737C199.211 34.8623 197.777 34.6005 196.411 34.0769Z" fill="#2D445B"/>
<path d="M5.5041 54.3832C5.89111 55.8174 6.65374 57.1492 7.64401 58.1281C8.64567 59.1184 10.0457 59.6533 11.7986 59.7216C11.8897 59.7216 11.9694 59.7216 12.0604 59.7216C13.6881 59.7216 15.2817 59.0842 16.363 57.9915C17.5468 56.7849 17.7289 54.9751 17.8883 53.3816L17.9224 53.006C17.9338 52.9604 17.9338 52.9149 17.9338 52.8921C17.9338 52.858 17.9338 52.8125 17.9338 52.8011C18.0248 49.9554 17.2508 47.8155 15.6573 46.4383C14.6898 45.6073 13.3353 45.1748 11.6393 45.1634C11.6165 45.1634 11.6051 45.1634 11.5824 45.1634C10.0457 45.1634 8.74812 45.596 7.64401 46.4838C5.51549 48.2025 4.6618 51.2986 5.5041 54.3832ZM12.5157 57.8208C11.2409 57.9232 10.0343 57.6272 9.2831 57.0467C8.53185 56.4662 7.89443 55.5215 7.50743 54.4515C6.88139 52.6986 6.75618 50.0465 8.45217 48.3164C9.20341 47.5424 10.1368 47.1212 11.1384 47.0757C11.2978 47.0643 11.4571 47.0643 11.6279 47.0643C12.4474 47.0643 13.3694 47.1667 14.1207 47.6448C14.815 48.0887 15.3613 48.931 15.6345 49.5684C16.0784 50.6043 16.0784 51.8108 16.0329 52.8807C15.9646 53.5295 15.8849 54.2011 15.7597 54.8499L15.737 54.9296C15.6231 55.476 15.5093 56.0565 15.1906 56.4662C14.6329 57.1947 13.5515 57.7411 12.5157 57.8208Z" fill="#2D445B"/>
<path d="M28.1685 52.71C28.4758 56.102 30.0466 58.6517 32.471 59.6761C33.302 60.029 34.167 60.1997 35.0207 60.1997C37.1492 60.1997 39.1412 59.1297 40.1997 57.2516C41.7022 54.5995 41.7136 51.3555 40.2567 48.8058C39.5737 47.6107 38.5607 46.5749 37.4224 45.9033C36.2386 45.1976 34.5882 44.9927 32.9263 45.3455C31.3783 45.6756 30.0693 46.5749 29.2498 47.8725C28.4872 49.0904 28.1115 50.5246 28.1457 52.1181C28.1457 52.1637 28.1343 52.2206 28.1457 52.2661L28.1685 52.6076C28.1571 52.6531 28.1685 52.6986 28.1685 52.71ZM32.5735 47.4172C33.1654 47.1895 33.78 47.0757 34.4061 47.0757C34.9069 47.0757 35.4191 47.144 35.9199 47.292C36.9899 47.6107 37.8663 48.6578 38.185 49.1018C39.4826 50.8433 39.79 53.1653 39.016 55.3166C38.5834 56.5004 37.946 57.3427 37.1151 57.798C36.2045 58.2988 35.0207 58.4354 33.9394 58.1736C30.684 57.3768 30.1376 53.5978 30.0579 52.471C29.9555 50.5473 30.5588 48.2139 32.5735 47.4172Z" fill="#2D445B"/>
<path d="M19.1992 57.6614C19.1992 57.9118 19.313 58.185 19.4838 58.3443C19.6887 58.5265 19.9277 58.6289 20.1554 58.6175C20.4285 58.6061 20.6676 58.5037 20.8269 58.3329L21.2253 57.9004C21.2367 57.889 21.2367 57.889 21.2481 57.8776C21.783 58.0825 22.3977 58.1964 23.0351 58.2077C23.6498 58.2305 24.2531 58.1394 24.7994 57.9346C24.8677 58.0484 24.9474 58.1622 25.0157 58.2533C25.0953 58.3899 25.2092 58.5151 25.3685 58.6289C25.5051 58.72 25.6759 58.7655 25.8466 58.7655C26.1084 58.7655 26.3702 58.663 26.5409 58.4809C26.8141 58.185 26.9279 57.6728 26.6661 57.3199C26.5751 57.1947 26.484 57.0581 26.393 56.9101C26.5865 56.7166 26.7458 56.5004 26.8938 56.2841C27.0759 55.9995 27.0987 55.6808 26.9507 55.4076C26.7913 55.1003 26.4499 54.8841 26.0856 54.8727C25.7555 54.8613 25.4482 55.0206 25.2661 55.3166C24.8449 55.9768 24.0368 56.341 23.0465 56.3069C22.466 56.2841 21.4188 56.1475 21.0204 55.4076C20.8611 55.1117 20.5879 54.941 20.2806 54.9296C19.9163 54.9182 19.5862 55.1117 19.3927 55.419C19.222 55.7036 19.2106 56.0451 19.3813 56.3524C19.461 56.5004 19.5521 56.6483 19.6659 56.7849L19.4724 57.0012C19.2903 57.1947 19.1992 57.4223 19.1992 57.6614Z" fill="#2D445B"/>
<path d="M45.7648 45.0041C45.1615 43.7975 44.5013 42.6023 43.8525 41.4527C42.9192 39.7909 41.963 38.0835 41.2004 36.3078C40.5288 34.737 40.2443 33.1321 40.3353 31.402C40.3923 30.3093 40.4947 29.1824 40.5858 28.1011C40.6427 27.4523 40.6996 26.8034 40.7451 26.166C40.9158 23.992 41.2915 21.8179 41.6443 19.7122C41.872 18.369 42.111 16.9804 42.2931 15.6145C42.5208 13.9185 42.6232 12.2111 42.6118 10.5606C42.5891 8.62561 42.2931 7.14589 41.6443 5.91658C40.9386 4.55068 39.3678 3.49211 37.9905 3.45797C37.9564 3.45797 37.9336 3.45797 37.8995 3.45797C36.4653 3.45797 35.0539 4.45962 34.4392 5.91658C34.0181 6.94101 33.8815 8.06787 33.7563 9.17197C33.7335 9.31994 33.7221 9.46792 33.6993 9.61589C33.5969 9.43377 33.4945 9.26303 33.3693 9.10368C32.379 7.7264 30.8423 6.92962 29.2943 6.99792C27.7691 7.05483 26.6081 7.81746 25.8454 9.25165C24.7299 7.95405 23.0567 7.13451 21.4063 7.08898C19.8582 7.05483 18.2875 7.70363 17.1151 8.86465C17.024 8.29552 16.9216 7.77193 16.8077 7.28248C16.4776 5.8369 16.0679 4.04985 15.1117 2.63843C14.2353 1.34082 12.8125 0.339162 11.4693 0.0773649C9.64815 -0.275492 8.11151 0.600959 7.64483 2.25142C7.17815 3.93603 7.23506 5.74584 7.30336 7.48736L7.31474 7.88575C7.38303 9.98013 7.53101 12.0062 7.65621 13.7136C7.71313 14.4421 7.77004 15.1592 7.82695 15.8876C7.91801 17.1056 8.02045 18.3121 8.10013 19.53C8.16843 20.5431 8.22534 21.8862 8.04322 23.2066C7.97492 23.7074 7.87248 24.2424 7.63345 24.6635C7.63345 24.6749 7.62206 24.6749 7.62206 24.6863C7.58792 24.7091 7.56515 24.7318 7.55377 24.7318C7.46271 24.7774 7.37165 24.8457 7.29198 24.9253C7.25783 24.9595 7.2123 25.005 7.16677 25.0619C7.10986 25.1188 7.05294 25.1871 7.01879 25.244C5.92607 26.6669 6.14234 28.6133 6.35861 29.6491C6.63179 30.9125 7.23506 32.0622 8.0546 32.9272C8.08875 35.1241 6.92773 37.0818 5.80087 38.9827L5.70981 39.1421C5.45939 39.5632 5.20898 39.9844 4.95856 40.4055C3.9569 42.0674 2.9211 43.7975 2.07879 45.5846C0.849484 48.1684 0.177918 50.5359 0.0299461 52.8011C-0.129409 55.1117 0.348655 57.4679 1.42999 59.6192C3.3081 63.3868 6.92773 66.2893 10.1034 67.5414C11.4693 68.0764 13.78 68.7707 15.3622 69.1122C17.3086 69.5447 18.9476 69.7951 20.5298 69.8976C21.5087 69.9658 22.5104 70 23.5462 70C26.0958 70 28.8163 69.7951 31.6846 69.3967C34.6669 69.0439 37.6718 68.3609 40.2329 66.9267C42.2817 65.7771 43.7956 64.5023 45.5371 62.3054C46.516 61.0647 47.1876 59.5053 47.5974 58.3557C48.0754 57.0126 48.2917 55.5215 48.2576 53.9052C48.2006 51.1506 47.4039 48.3164 45.7648 45.0041ZM12.5165 25.2554C14.1215 25.0619 15.7605 24.9936 17.3882 25.0619C19.0387 25.1302 20.7005 25.3465 22.3055 25.688C23.1705 25.8815 23.9218 26.075 24.5934 26.2799C25.1739 26.462 25.7771 26.6896 26.2211 27.1108C26.517 27.3953 26.9609 27.9645 26.5739 28.6133C26.2893 29.0799 25.8227 29.5352 25.1625 29.9792C23.9218 30.8101 22.4421 31.2881 21.0306 31.6979C19.4257 32.1532 17.8094 32.4605 16.2272 32.6085C14.6906 32.7451 12.9263 32.8703 11.3669 32.5858C10.0693 32.3467 9.06764 31.4589 8.53267 30.093C8.06598 28.8978 7.83833 27.2815 8.60096 26.3709C9.02211 25.9725 9.614 25.8018 10.0807 25.688C10.8092 25.5058 11.6173 25.3693 12.5165 25.2554ZM9.93271 34.1452C11.2645 34.6574 12.8011 34.6346 14.1784 34.6118H14.2353C16.1931 34.5777 18.1736 34.3387 20.0973 33.8947C22.2941 33.3939 23.9673 32.8134 25.3674 32.0622C26.5967 31.402 28.6455 30.0133 28.6455 28.0783C28.6455 25.8473 26.2211 24.8229 25.1852 24.4928C23.5234 23.9464 21.6681 23.5708 19.5168 23.3318C17.3313 23.0814 15.1117 23.0814 12.9263 23.3204C11.845 23.4342 10.8661 23.5936 9.92133 23.7871C10.0238 23.1838 10.0579 22.5805 10.0693 22.0456C10.1262 20.748 10.0238 19.439 9.93271 18.1755C9.8758 17.4243 9.81889 16.6617 9.75059 15.9104C9.53433 13.1217 9.30667 10.2419 9.227 7.40769C9.20423 6.46294 9.18147 5.60925 9.227 4.7328V4.65313C9.26114 3.92465 9.30667 3.09372 9.60262 2.45631C9.73921 2.17174 9.93271 2.001 10.2059 1.92133C10.8205 1.75059 11.7767 2.1376 12.4369 2.58151C13.6548 3.41244 14.167 4.7328 14.4743 5.80276C14.941 7.40769 15.2597 8.89879 15.4418 10.3558C15.5101 10.8793 15.567 11.3916 15.624 11.9152C15.8971 14.3282 16.1817 16.821 17.1037 19.1772C17.5021 20.2016 18.4127 22.0342 19.9948 22.7968C21.4176 23.4798 23.1478 23.0472 24.2974 21.7155C24.6161 21.3512 24.8893 20.9415 25.1397 20.4975C25.3218 20.9073 25.5381 21.3285 25.834 21.7155C26.9609 23.1838 28.8163 23.7871 30.3415 23.1611C31.9009 22.5236 32.7318 20.8049 33.3465 19.1999C33.6424 18.4259 33.8928 17.6064 34.075 16.7755C34.94 14.7152 35.236 12.4729 35.5319 10.2988C35.5888 9.90045 35.6344 9.51345 35.6913 9.11506C35.7141 8.9557 35.7368 8.79635 35.7596 8.62561C35.8848 7.63534 36.0214 6.51985 36.7271 5.87105C37.2052 5.42713 37.7743 5.24501 38.2523 5.3816C38.7532 5.52958 39.2768 5.89382 39.6979 6.38327C40.5402 7.37354 40.6882 9.00124 40.711 10.2988C40.7451 11.7786 40.6654 13.3607 40.4719 14.977C40.2898 16.5137 40.0166 18.0731 39.7548 19.5756C39.4475 21.3057 39.1402 23.0928 38.9581 24.8798C38.867 25.7335 38.8101 26.5986 38.7418 27.4409C38.6849 28.2376 38.628 29.0686 38.5369 29.8767C38.3776 31.4817 38.2865 33.2004 38.6849 34.8736C39.0605 36.3989 39.7548 37.8445 40.5061 39.3014C41.0297 40.3258 41.5988 41.3503 42.1452 42.3292L42.6915 43.3081C44.0802 45.835 45.4916 48.544 46.0835 51.5035C46.6754 54.497 46.2315 57.2971 45.1957 59.4712C44.6379 60.6436 43.9208 61.3493 43.2151 62.1347C42.4183 63.0225 41.0524 64.047 40.3012 64.5819C38.1954 66.0844 36.0555 66.6194 33.3123 67.1999C33.0619 67.2568 32.8115 67.3023 32.5725 67.3365C32.5383 67.3365 32.5042 67.3479 32.4587 67.3479C32.1513 67.3934 31.8326 67.4389 31.5253 67.4845C31.3887 67.4958 31.2521 67.5186 31.1155 67.53C31.0358 67.5414 30.9676 67.5528 30.9334 67.5641C27.9057 67.9625 24.9348 68.1219 22.0778 68.0422C19.0387 67.9625 15.9085 67.4389 12.7556 66.4942C8.91967 65.3446 5.74396 63.0112 3.78617 59.9151C2.56824 57.9915 1.91944 55.8971 1.89667 53.8369C1.87391 51.7311 2.40889 49.4432 3.47884 47.0415C4.36667 45.061 5.50492 43.1715 6.59764 41.3389C6.87082 40.895 7.13262 40.4397 7.39442 39.9958C8.41884 38.3567 9.62539 36.3192 9.93271 34.1452ZM24.6161 14.5559L24.582 14.8291C24.5023 15.512 24.434 16.2177 24.3202 16.8893C24.2974 16.9576 24.286 17.0373 24.286 17.0942C24.1153 18.0048 23.8876 18.7333 23.5803 19.3821C23.2388 20.0992 22.5445 21.0098 21.7136 21.1805C21.2811 21.2716 20.8713 21.1577 20.4729 20.8276C19.2208 19.7805 18.7086 18.1641 18.2988 16.6047C17.9232 15.2047 17.7297 13.7819 17.559 12.0745L17.5135 11.5851C17.5248 11.5623 17.5362 11.5509 17.5476 11.5282C18.2875 9.99151 19.7558 8.98986 21.281 8.96709C22.1234 8.95571 22.9657 9.22888 23.6258 9.7411C24.047 10.0712 24.7869 10.7314 25.0828 11.5282C24.8324 12.564 24.7186 13.6225 24.6161 14.5559ZM32.6408 13.7022C32.5839 14.5104 32.4587 15.364 32.2765 16.2064C32.231 16.3088 32.2082 16.4226 32.2082 16.4909C32.0489 17.1625 31.844 17.8454 31.605 18.4942C31.2635 19.4276 30.5464 21.374 29.2488 21.4992C27.8487 21.6244 27.1089 20.304 26.6308 19.1316C26.3463 18.4259 26.1641 17.8682 26.1641 17.2877C26.2893 16.5251 26.3804 15.7397 26.4601 14.977C26.5398 14.2258 26.6194 13.5201 26.7333 12.8258L26.7446 12.7802C26.9495 11.5509 27.2682 9.69557 28.4406 9.10368C29.5334 8.55732 30.831 9.03539 31.5481 9.79801C32.379 10.6858 32.7546 11.9948 32.6408 13.7022Z" fill="#2D445B"/>
<path d="M70.2381 62.1461C68.6787 61.2469 67.4494 60.0289 66.5502 58.4809C65.6509 56.9329 65.207 55.2141 65.207 53.3133C65.207 51.4124 65.6509 49.6823 66.5388 48.1456C67.4266 46.5976 68.6445 45.3797 70.2039 44.4805C71.7633 43.5812 73.4935 43.1373 75.4171 43.1373C78.0009 43.1373 80.2205 43.9 82.0873 45.4138C82.5426 45.7894 82.5767 46.4724 82.1442 46.8822C81.8027 47.2123 81.2563 47.2464 80.8921 46.9391C79.3555 45.6529 77.557 45.0041 75.474 45.0041C73.9715 45.0041 72.6056 45.3683 71.3763 46.1082C70.147 46.848 69.1909 47.8383 68.4852 49.1018C67.7795 50.3652 67.4266 51.7539 67.4266 53.2905C67.4266 54.8499 67.7795 56.2613 68.4966 57.5248C69.2137 58.7883 70.1812 59.7785 71.4105 60.507C72.6398 61.2355 73.9829 61.5997 75.4513 61.5997C76.6806 61.5997 77.8074 61.3721 78.8319 60.9168C79.6059 60.5753 80.3116 60.1428 80.949 59.5964C81.3132 59.2891 81.8596 59.3118 82.2125 59.6419L82.2352 59.6647C82.6564 60.0631 82.6336 60.7347 82.2011 61.1103C81.4498 61.7591 80.6075 62.2713 79.6628 62.6811C78.3766 63.2274 76.9765 63.5006 75.4626 63.5006C73.539 63.5006 71.7975 63.0453 70.2381 62.1461Z" fill="#2D445B"/>
<path d="M99.2411 63.2161H87.3464C86.8114 63.2161 86.3789 62.7835 86.3789 62.2485V44.3894C86.3789 43.8544 86.8114 43.4219 87.3464 43.4219H87.5968C88.1318 43.4219 88.5643 43.8544 88.5643 44.3894V60.2908C88.5643 60.8257 88.9969 61.2583 89.5319 61.2583H99.2525C99.7875 61.2583 100.22 61.6908 100.22 62.2258V62.2485C100.197 62.7835 99.7647 63.2161 99.2411 63.2161Z" fill="#2D445B"/>
<path d="M105.686 62.4648C104.445 61.7932 103.478 60.8257 102.806 59.5736C102.123 58.3102 101.793 56.8191 101.793 55.0775V44.4008C101.793 43.8658 102.226 43.4333 102.76 43.4333H103.034C103.569 43.4333 104.001 43.8658 104.001 44.4008V54.6905C104.001 56.7394 104.548 58.3557 105.64 59.5053C106.733 60.6663 108.224 61.2469 110.102 61.2469C112.003 61.2469 113.506 60.6663 114.598 59.5053C115.691 58.3443 116.237 56.7394 116.237 54.6905V44.4008C116.237 43.8658 116.67 43.4333 117.205 43.4333H117.455C117.99 43.4333 118.423 43.8658 118.423 44.4008V55.0775C118.423 56.8077 118.093 58.3102 117.421 59.5736C116.75 60.8371 115.793 61.8046 114.541 62.4648C113.289 63.125 111.81 63.4664 110.114 63.4664C108.418 63.4664 106.926 63.1363 105.686 62.4648Z" fill="#2D445B"/>
<path d="M138.226 54.7475C139.069 55.6012 139.49 56.6939 139.49 58.0143C139.49 59.6192 138.864 60.8826 137.612 61.816C136.359 62.7494 134.663 63.2161 132.512 63.2161H123.975C123.44 63.2161 123.008 62.7835 123.008 62.2485V44.3894C123.008 43.8544 123.44 43.4219 123.975 43.4219H132.057C134.049 43.4219 135.631 43.8658 136.792 44.7537C137.953 45.6415 138.534 46.8594 138.534 48.396C138.534 49.5684 138.203 50.5587 137.543 51.3669C137.316 51.6401 137.065 51.8905 136.769 52.1067C136.189 52.5393 136.212 53.4157 136.849 53.7458C137.384 54.019 137.839 54.3491 138.226 54.7475ZM125.182 46.3358V51.2531C125.182 51.788 125.614 52.2206 126.149 52.2206H131.966C133.343 52.2206 134.413 51.936 135.187 51.3783C135.961 50.8091 136.348 49.9782 136.348 48.8627C136.348 47.7359 135.927 46.8708 135.085 46.2789C134.242 45.687 133.07 45.3911 131.567 45.3911H126.138C125.614 45.3797 125.182 45.8122 125.182 46.3358ZM132.114 61.2583C133.753 61.2583 135.028 60.9509 135.927 60.3363C136.826 59.7216 137.281 58.8338 137.281 57.6614C137.281 56.5118 136.86 55.6353 136.007 55.032C135.164 54.4288 134.037 54.1328 132.649 54.1328H126.149C125.614 54.1328 125.182 54.5654 125.182 55.1003V60.2908C125.182 60.8257 125.614 61.2583 126.149 61.2583H132.114Z" fill="#2D445B"/>
</svg>
