<svg width="40" height="40" viewBox="0 0 40 40" fill="none" xmlns="http://www.w3.org/2000/svg">
<g clip-path="url(#clip0_304_372)">
<path d="M5.14467 8.63219C5.23366 8.44016 5.35006 8.22524 5.55717 8.18172C5.69373 8.15321 5.83233 8.20961 5.95936 8.26735C8.62522 9.47922 10.6594 11.7345 13.115 13.3298C14.4812 14.2173 15.8693 15.0634 17.2271 15.9662C17.9844 16.4695 18.7981 16.9914 19.7074 17.0034C20.7393 17.0173 21.653 16.3738 22.4581 15.7284C25.4702 13.314 28.1315 10.4692 31.2705 8.22212C31.4683 8.08055 31.6755 7.93805 31.9139 7.89055C32.5773 7.75805 33.1885 8.38477 33.5415 8.87118C34.0046 9.50922 34.4711 10.0734 35.0136 10.6648C36.249 12.0113 37.4132 13.4231 38.4997 14.8924C38.7679 15.2552 39.0401 15.643 39.0923 16.0911C39.1746 16.7981 38.6948 17.4387 38.2074 17.9574C37.5876 18.6173 36.9113 19.2212 36.236 19.8241C34.4685 21.4022 32.701 22.9803 30.9335 24.5584C29.7777 25.5903 28.6209 26.6232 27.399 27.5758C26.2398 28.4795 25.0231 29.3099 23.7591 30.0602C22.6704 30.7064 21.5351 31.5809 20.2318 31.6661C18.6613 31.7692 17.2299 30.8421 15.9309 29.9536C14.5707 29.0231 13.2105 28.0927 11.8502 27.1622C11.2644 26.7615 10.6299 26.3942 10.1279 25.8876C9.75694 25.5134 9.46631 25.1673 9.00983 24.8831C7.70717 24.0717 6.39295 23.3123 5.13928 22.4209C4.51319 21.9756 3.89616 21.5177 3.2835 21.0543C2.93467 20.7906 1.86459 19.6514 1.45467 19.6514C1.20967 19.4621 0.953811 19.259 0.839514 18.9712C0.582327 18.3239 1.02295 17.5294 1.28905 16.9548C1.71741 16.0302 2.14584 15.1054 2.5742 14.1806C3.43116 12.331 4.28787 10.4816 5.14467 8.63219Z" fill="#F2574D"/>
<path d="M18.9061 32.6431C18.1529 32.2948 17.4529 31.7945 16.7593 31.3422C13.926 29.4949 11.3136 27.3399 8.63692 25.2787C7.31035 24.2572 5.96489 23.2582 4.56817 22.3341C3.8709 21.8727 3.16106 21.4302 2.43606 21.0136C1.8109 20.6546 1.13418 20.3344 0.629495 19.8049C0.125433 19.2762 -0.131911 18.5812 0.0678551 17.8579C0.305668 16.997 0.837699 16.1692 1.22043 15.3655C2.04332 13.6374 2.84762 11.8995 3.65332 10.1632C4.05606 9.29526 4.42614 8.40971 4.86496 7.55932C5.00161 7.2944 5.3877 7.20237 5.63559 7.35721C7.06707 8.25128 8.50403 9.14167 9.90809 10.0787C10.7257 10.6243 11.5184 11.2021 12.2968 11.7995C12.9667 12.2541 13.631 12.7171 14.2909 13.186C15.0356 13.7153 15.7752 14.2517 16.5125 14.791C17.2016 15.295 17.8752 15.8755 18.6214 16.2928C19.4195 16.7393 19.9786 16.2941 20.6256 15.8026C21.3925 15.2202 22.1588 14.637 22.9254 14.0542C24.4586 12.8885 25.9923 11.7235 27.525 10.5571C28.2915 9.97385 29.0563 9.38823 29.8219 8.80378C30.1931 8.52034 30.5643 8.23698 30.9355 7.95362C31.2866 7.6855 31.6382 7.343 32.05 7.17253C32.93 6.80846 33.4241 7.5394 33.8892 8.14862C34.4816 8.92479 35.1152 9.67299 35.7271 10.4339C36.916 11.9121 38.1109 13.3848 39.3111 14.8539C39.8472 15.51 40.2679 16.146 39.7937 16.9799C39.3641 17.7354 38.6902 18.4128 38.087 19.0304C36.8279 20.3195 35.4696 21.5204 34.1057 22.6967C31.3568 25.0673 28.4868 27.3024 25.5989 29.5003C24.8746 30.0517 24.148 30.6003 23.4207 31.1479C22.7443 31.6573 22.0739 32.2656 21.3071 32.6358C20.5062 33.0223 19.71 33.0147 18.9061 32.6431ZM21.4853 31.0393C22.1733 30.5499 22.8497 30.0432 23.5302 29.5435C27.8223 26.3924 32.0356 23.1546 35.9211 19.5057C36.8752 18.6096 37.8161 17.6892 38.5911 16.6344C38.6769 16.5177 38.7645 16.386 38.7533 16.2417C38.7439 16.12 38.6661 16.0161 38.5912 15.9199C36.7423 13.5395 34.963 11.0785 33.0251 8.77018C32.9114 8.63471 32.7765 8.4455 32.6339 8.3362C32.4936 8.22878 32.4792 8.24979 32.3372 8.35737C28.7024 11.1142 25.1004 13.9297 21.5763 16.8111C20.7607 17.478 19.7018 18.0136 18.6814 17.751C18.0721 17.5942 17.5698 17.1755 17.0865 16.7726C15.2536 15.2447 13.3719 13.7757 11.4451 12.3682C11.0247 12.061 5.687 8.48026 5.62379 8.62354C4.9845 10.0769 4.26309 11.5 3.59379 12.9385C2.82973 14.5805 1.98325 16.2111 1.31582 17.8951C1.05465 18.5542 1.41535 18.9344 1.95254 19.2926C2.5609 19.6982 3.22504 20.0232 3.84996 20.4032C5.2145 21.2331 6.52535 22.1479 7.80731 23.0996C10.3797 25.0092 12.8366 27.0706 15.4358 28.9444C16.0739 29.4044 16.7202 29.853 17.378 30.284C18.0431 30.7199 18.7382 31.2122 19.47 31.529C20.2336 31.8596 20.8623 31.4822 21.4853 31.0393Z" fill="#A81F1F"/>
</g>
<defs>
<clipPath id="clip0_304_372">
<rect width="40" height="40" fill="white" transform="matrix(-4.37114e-08 1 1 4.37114e-08 0 0)"/>
</clipPath>
</defs>
</svg>
